<?xml version="1.0" standalone="no"?>
<!DOCTYPE svg PUBLIC "-//W3C//DTD SVG 20010904//EN"
 "http://www.w3.org/TR/2001/REC-SVG-20010904/DTD/svg10.dtd">
<svg version="1.0" xmlns="http://www.w3.org/2000/svg"
 width="700.000000pt" height="700.000000pt" viewBox="0 0 700.000000 700.000000"
 preserveAspectRatio="xMidYMid meet">
<metadata>
Created by potrace 1.11, written by Peter Selinger 2001-2013
</metadata>
<g transform="translate(0.000000,700.000000) scale(0.100000,-0.100000)"
fill="#000000" stroke="none">
<path d="M4597 6594 c-1 -1 -51 -5 -111 -8 -115 -7 -175 -13 -214 -22 -13 -3
-43 -7 -65 -10 -23 -3 -94 -19 -157 -36 -458 -119 -833 -369 -1119 -744 l-77
-101 -94 34 c-52 19 -131 48 -175 64 -216 79 -339 99 -580 94 -110 -2 -211 -6
-225 -9 -14 -3 -47 -8 -75 -11 -27 -3 -63 -8 -80 -11 -16 -3 -37 -6 -45 -8
-456 -81 -928 -330 -1252 -662 -124 -127 -251 -298 -306 -411 -20 -42 -22 -28
58 -328 46 -171 152 -571 156 -585 2 -8 17 -67 34 -130 17 -63 32 -122 34
-130 11 -42 130 -494 146 -550 24 -90 49 -181 135 -510 42 -157 100 -377 130
-490 30 -113 66 -248 80 -300 14 -52 46 -171 71 -265 25 -93 47 -177 49 -185
1 -8 19 -76 39 -150 20 -74 70 -263 112 -420 41 -157 78 -288 82 -291 4 -4 61
36 127 88 285 224 611 463 830 610 153 102 371 233 390 233 5 0 22 6 37 14 23
12 72 27 95 28 5 0 17 4 28 8 80 30 605 34 755 5 9 -2 43 -6 75 -10 33 -4 71
-9 85 -11 14 -2 45 -7 70 -10 25 -3 54 -8 65 -10 11 -2 63 -11 115 -20 89 -15
204 -39 242 -50 15 -4 51 25 273 225 22 20 69 61 105 91 36 30 72 61 81 70 32
31 330 265 416 326 196 140 286 180 425 189 92 6 370 6 463 0 33 -2 107 -6
165 -9 58 -3 128 -8 155 -11 28 -3 82 -7 120 -10 65 -5 103 -8 230 -20 28 -3
77 -7 110 -10 33 -3 76 -8 95 -10 19 -3 58 -7 85 -10 28 -3 83 -10 124 -16 41
-5 76 -7 79 -5 6 6 -3 42 -208 851 -100 396 -183 727 -185 735 -2 8 -13 53
-25 100 -12 47 -24 92 -26 100 -2 8 -53 213 -115 455 -61 242 -112 447 -114
455 -2 8 -26 105 -55 215 -28 110 -53 207 -55 215 -2 8 -11 44 -20 80 -9 36
-18 72 -20 80 -2 8 -20 80 -40 160 -20 80 -38 152 -40 160 -17 77 -187 735
-191 739 -2 3 -10 6 -17 7 -7 1 -50 11 -97 22 -153 37 -404 79 -570 97 -30 3
-68 7 -85 10 -88 11 -519 27 -528 19z m233 -558 c154 -9 247 -15 315 -21 33
-3 83 -7 110 -9 28 -2 83 -7 123 -11 83 -9 82 -7 106 -110 18 -76 92 -364 111
-430 8 -27 16 -61 19 -75 3 -14 17 -70 31 -125 15 -55 28 -107 30 -115 2 -8
22 -87 45 -175 23 -88 66 -257 96 -375 31 -118 62 -240 70 -270 9 -30 17 -66
20 -80 3 -14 9 -38 14 -55 9 -29 29 -109 175 -680 37 -143 75 -294 86 -335 19
-71 57 -218 64 -250 2 -8 13 -51 25 -95 37 -137 40 -127 -27 -121 -94 8 -453
19 -663 19 -441 1 -611 -21 -720 -94 -14 -9 -54 -36 -90 -59 -67 -44 -290
-210 -320 -239 -9 -9 -26 -23 -36 -31 -17 -13 -85 -71 -163 -135 -13 -11 -28
-25 -35 -31 -6 -6 -45 -39 -86 -73 l-74 -63 -8 29 c-5 15 -10 37 -12 48 -2 11
-22 85 -44 165 -22 80 -63 233 -92 340 -28 107 -61 227 -72 265 -10 39 -21 77
-23 85 -2 8 -24 94 -49 190 -50 189 -174 689 -182 730 -3 14 -8 34 -11 45 -4
11 -8 25 -9 31 -1 7 -14 60 -29 119 -14 58 -28 114 -30 123 -2 9 -40 163 -85
342 -45 179 -83 333 -85 343 -2 9 -29 117 -59 240 -31 123 -56 228 -56 234 0
12 186 228 258 300 235 235 477 369 737 408 81 12 420 12 625 1z m-2488 -724
c69 -17 246 -70 255 -76 1 -1 161 -591 213 -786 15 -58 37 -141 49 -185 12
-44 47 -172 77 -285 30 -113 73 -270 95 -350 21 -80 53 -197 69 -260 17 -63
34 -128 39 -145 26 -84 188 -726 247 -975 2 -8 19 -78 38 -155 20 -77 36 -143
36 -146 0 -3 -136 -5 -302 -5 -260 1 -489 -8 -508 -18 -3 -2 -33 -7 -68 -10
-88 -9 -210 -49 -322 -105 -121 -61 -180 -97 -436 -269 -222 -147 -322 -212
-329 -212 -5 0 -33 94 -70 235 -31 117 -71 269 -119 445 -18 69 -79 296 -136
505 -56 209 -127 472 -157 585 -31 113 -73 273 -95 355 -72 270 -95 356 -188
700 -50 187 -94 351 -96 364 -3 14 -7 28 -10 33 -9 14 147 208 251 313 151
152 314 262 500 336 89 35 222 75 281 85 21 3 42 8 45 10 4 2 31 6 60 10 30 3
57 8 60 10 4 2 42 7 85 10 44 3 80 7 82 9 2 2 63 2 135 1 93 -2 157 -9 219
-24z"/>
</g>
</svg>
